<svg width="47" height="49" viewBox="0 0 47 49" fill="none" xmlns="http://www.w3.org/2000/svg">
<path d="M27.5316 28.3065L43.9485 23.3481L27.246 23.0882L31.861 11.4981L21.8102 20.9132L12.6202 12.228L16.9955 24.3599C16.9955 24.3599 2.38113 29.5657 2.45721 29.2477C2.5333 28.9296 17.0953 28.0932 17.241 28.7018C17.3834 29.3189 14.2139 41.0831 14.2139 41.0831L22.4202 32.0035L36.0233 40.2648L27.5316 28.3065Z" fill="#FF49B8"/>
<path d="M40.4161 34.8827L43.8459 33.6628L40.3019 33.7793L41.1613 31.2745L39.1271 33.374L37.0894 31.627L38.1417 34.1543C38.1417 34.1543 35.0966 35.4082 35.1095 35.34C35.1224 35.2718 38.2012 34.9448 38.2384 35.0723C38.2749 35.2017 37.7238 37.7285 37.7238 37.7285L39.3704 35.7191L42.3394 37.3309L40.4161 34.8827Z" fill="#FF49B8"/>
<path d="M24.9455 8.30121L30.3853 6.65823L24.8509 6.5721L26.3801 2.73169L23.0497 5.85143L20.0046 2.97356L21.4544 6.99349C21.4544 6.99349 16.6119 8.71847 16.6371 8.61307C16.6623 8.50768 21.4875 8.23052 21.5357 8.43221C21.5829 8.63667 20.5327 12.5348 20.5327 12.5348L23.2519 9.52621L27.7593 12.2636L24.9455 8.30121Z" fill="#10CFC9"/>
<g clip-path="url(#clip0_4_44374)">
<path d="M40.8687 7.99371C40.6982 7.99371 40.5586 7.85415 40.5586 7.68358V5.62434C40.5586 5.45377 40.6982 5.31421 40.8687 5.31421C41.0393 5.31421 41.1788 5.45377 41.1788 5.62434V7.68358C41.1788 7.85415 41.0393 7.99371 40.8687 7.99371Z" fill="white"/>
<path d="M38.9461 8.84652C38.8685 8.84652 38.7879 8.81551 38.729 8.75658L37.2714 7.29899C37.1504 7.17804 37.1504 6.98266 37.2714 6.86171C37.3923 6.74076 37.5877 6.74076 37.7087 6.86171L39.1663 8.31931C39.2872 8.44025 39.2872 8.63564 39.1663 8.75658C39.1073 8.81551 39.0267 8.84652 38.9492 8.84652H38.9461Z" fill="white"/>
<path d="M38.1892 10.8096H36.13C35.9594 10.8096 35.8198 10.67 35.8198 10.4995C35.8198 10.3289 35.9594 10.1893 36.13 10.1893H38.1892C38.3598 10.1893 38.4993 10.3289 38.4993 10.4995C38.4993 10.67 38.3598 10.8096 38.1892 10.8096Z" fill="white"/>
<path d="M37.5844 14.187C37.5069 14.187 37.4262 14.156 37.3673 14.097C37.2464 13.9761 37.2464 13.7807 37.3673 13.6598L38.8249 12.2022C38.9459 12.0812 39.1413 12.0812 39.2622 12.2022C39.3831 12.3231 39.3831 12.5185 39.2622 12.6394L37.8046 14.097C37.7457 14.156 37.665 14.187 37.5875 14.187H37.5844Z" fill="white"/>
<path d="M41.0054 15.5484C40.8349 15.5484 40.6953 15.4088 40.6953 15.2383V13.179C40.6953 13.0085 40.8349 12.8689 41.0054 12.8689C41.176 12.8689 41.3156 13.0085 41.3156 13.179V15.2383C41.3156 15.4088 41.176 15.5484 41.0054 15.5484Z" fill="white"/>
<path d="M44.3855 14.0908C44.308 14.0908 44.2274 14.0598 44.1684 14.0008L42.7108 12.5433C42.5899 12.4223 42.5899 12.2269 42.7108 12.106C42.8318 11.985 43.0272 11.985 43.1481 12.106L44.6057 13.5636C44.7267 13.6845 44.7267 13.8799 44.6057 14.0008C44.5468 14.0598 44.4661 14.0908 44.3886 14.0908H44.3855Z" fill="white"/>
<path d="M45.7439 10.6701H43.6846C43.5141 10.6701 43.3745 10.5305 43.3745 10.3599C43.3745 10.1894 43.5141 10.0498 43.6846 10.0498H45.7439C45.9145 10.0498 46.054 10.1894 46.054 10.3599C46.054 10.5305 45.9145 10.6701 45.7439 10.6701Z" fill="white"/>
<path d="M42.832 8.74716C42.7544 8.74716 42.6738 8.71614 42.6149 8.65722C42.4939 8.53627 42.4939 8.34089 42.6149 8.21994L44.0725 6.76234C44.1934 6.64139 44.3888 6.64139 44.5098 6.76234C44.6307 6.88329 44.6307 7.07867 44.5098 7.19962L43.0522 8.65722C42.9932 8.71614 42.9126 8.74716 42.8351 8.74716H42.832Z" fill="white"/>
</g>
<path d="M5.9256 18.9883L3.81027 18.5366L5.63946 19.5821L4.42409 20.5814L6.10752 20.1533L6.59394 21.6722L6.8492 20.0657C6.8492 20.0657 8.78047 20.3803 8.75271 20.4108C8.72494 20.4413 7.06544 19.6472 7.0864 19.5711C7.10824 19.4943 8.17454 18.3877 8.17454 18.3877L6.7153 18.8911L5.71558 17.1504L5.9256 18.9883Z" fill="white"/>
<defs>
<clipPath id="clip0_4_44374">
<rect width="10.2342" height="10.2342" fill="white" transform="translate(35.8198 5.31421)"/>
</clipPath>
</defs>
</svg>
