<svg width="21" height="21" viewBox="0 0 21 21" fill="none" xmlns="http://www.w3.org/2000/svg">
<path fill-rule="evenodd" clip-rule="evenodd" d="M7.82864 19.8479C7.16541 19.9165 6.57236 19.4343 6.50374 18.7713L6.26932 16.5024L4.07525 17.1259C3.43398 17.3081 2.76629 16.936 2.58404 16.2946C2.54445 16.1552 2.53104 16.0147 2.54088 15.878C2.5763 15.3859 2.91328 14.946 3.41519 14.8034L6.56948 13.9069L8.29251 11.3637L5.22843 11.1432L2.57217 13.0658C2.03206 13.457 1.27718 13.3361 0.886388 12.7958C0.713196 12.5567 0.640346 12.2751 0.660015 12.0019C0.684743 11.6584 0.855544 11.328 1.15638 11.1102L3.00391 9.77267L1.36702 8.1841C0.888474 7.72012 0.876942 6.95555 1.34124 6.47722C1.80539 5.99849 2.56981 5.98695 3.04831 6.45145L5.4018 8.73489L8.46588 8.95546L7.12488 6.19151L4.13147 4.85269C3.65522 4.63943 3.38471 4.15548 3.42011 3.66374C3.42993 3.52723 3.4632 3.3899 3.52249 3.25766C3.79473 2.64897 4.50884 2.3763 5.11738 2.64852L7.19954 3.57981L7.75656 1.36792C7.91943 0.721543 8.57544 0.329253 9.222 0.492143C9.86857 0.654845 10.2609 1.3107 10.098 1.95741L9.29711 5.13748L10.6381 7.90143L12.3612 5.35806L12.0242 2.09607C12.0168 2.02436 12.0158 1.95363 12.0208 1.88402C12.0621 1.31097 12.5095 0.832473 13.1009 0.771375C13.7642 0.702773 14.3574 1.18499 14.4258 1.84802L14.6604 4.1169L16.8543 3.49343C17.4957 3.31118 18.1635 3.68332 18.3457 4.32474C18.528 4.96581 18.1558 5.63369 17.5144 5.81613L14.3601 6.71239L12.637 9.25573L15.7013 9.47632L18.3576 7.55348C18.8975 7.16229 19.6524 7.2832 20.0433 7.82348C20.4343 8.36342 20.3134 9.11846 19.7732 9.50906L17.9256 10.8468L19.5625 12.4352C20.0412 12.8993 20.0528 13.6634 19.5885 14.1421C19.1241 14.6208 18.3597 14.6324 17.8814 14.1679L15.5279 11.8846L12.4636 11.664L13.8046 14.4278L16.7981 15.7667C17.4067 16.039 17.6794 16.7529 17.4072 17.3616C17.135 17.9703 16.4208 18.243 15.8121 17.9708L13.7301 17.0395L13.173 19.2514C13.0103 19.8978 12.3541 20.29 11.7075 20.1271C11.1311 19.982 10.7567 19.4443 10.798 18.8713C10.803 18.8017 10.814 18.7318 10.8316 18.6619L11.6324 15.4818L10.2914 12.7179L8.5683 15.2613L8.90541 18.5232C8.97404 19.1866 8.49185 19.7795 7.82864 19.8479Z" fill="#7DC2F3"/>
</svg>
