<svg width="13" height="13" viewBox="0 0 13 13" fill="none" xmlns="http://www.w3.org/2000/svg">
<path fill-rule="evenodd" clip-rule="evenodd" d="M9.10457 1.36837C8.84597 1.05191 8.37981 1.00517 8.06342 1.26368L6.98092 2.14846L6.29679 0.929205C6.09686 0.572839 5.64583 0.445999 5.2894 0.646002C5.21196 0.689456 5.14541 0.744722 5.0906 0.808391C4.89331 1.03758 4.84965 1.37441 5.00613 1.65333L5.98961 3.40622L5.6393 5.25625L4.21226 4.02781L3.88877 2.04414C3.8231 1.64069 3.44275 1.36698 3.0394 1.43289C2.86078 1.46196 2.7074 1.55287 2.59787 1.68012C2.46015 1.84011 2.39162 2.05749 2.42823 2.28217L2.65311 3.66201L1.25509 3.64497C0.846577 3.63979 0.511116 3.96711 0.506174 4.37567C0.500993 4.78434 0.828236 5.11974 1.23696 5.12467L3.24674 5.14942L4.67378 6.37786L2.89637 6.99955L1.01674 6.28766C0.717577 6.17452 0.390842 6.26793 0.193699 6.49695C0.138967 6.56053 0.0940691 6.63459 0.0626866 6.71769C-0.0820737 7.0999 0.110446 7.52705 0.492587 7.67175L1.80004 8.1669L1.08614 9.36898C0.877566 9.72031 0.993129 10.1743 1.34454 10.383C1.69587 10.5917 2.14983 10.4762 2.35854 10.1247L3.38491 8.39649L5.16234 7.77482L4.81197 9.62494L3.25563 10.897C3.22146 10.925 3.19045 10.9553 3.16254 10.9877C2.9328 11.2546 2.92043 11.6559 3.15108 11.9381C3.40968 12.2546 3.87593 12.3014 4.19223 12.0428L5.27482 11.1581L5.95886 12.3773C6.15886 12.7337 6.60991 12.8606 6.96634 12.6606C7.32263 12.4607 7.44954 12.0096 7.24962 11.6531L6.26606 9.90024L6.61643 8.05015L8.04355 9.27866L8.36695 11.2624C8.43256 11.6658 8.81288 11.9395 9.21632 11.8736C9.61962 11.808 9.89339 11.4276 9.82741 11.0243L9.6026 9.64437L11.0005 9.66149C11.4092 9.66668 11.7445 9.33959 11.7496 8.93085C11.7547 8.52211 11.4274 8.18671 11.0188 8.18185L9.00906 8.15703L7.58193 6.92851L9.35926 6.30692L11.239 7.01873C11.6212 7.16349 12.0483 6.97104 12.193 6.58883C12.3378 6.20662 12.1453 5.77947 11.763 5.6347L10.4557 5.13962L11.1695 3.93748C11.3782 3.58623 11.2625 3.13213 10.9111 2.92348C10.5978 2.73743 10.2027 2.8093 9.97298 3.07619C9.94507 3.10861 9.9197 3.14376 9.89711 3.18173L8.87074 4.90996L7.09331 5.53162L7.44368 3.6815L9.00002 2.4095C9.31656 2.15084 9.36323 1.68477 9.10457 1.36837Z" fill="#FF97E0"/>
</svg>
