<svg width="47" height="49" viewBox="0 0 47 49" fill="none" xmlns="http://www.w3.org/2000/svg">
<path d="M27.5316 28.1095L43.9485 23.1511L27.246 22.8911L31.861 11.3011L21.8102 20.7162L12.6202 12.031L16.9955 24.1629C16.9955 24.1629 2.38113 29.3687 2.45722 29.0507C2.5333 28.7326 17.0953 27.8961 17.241 28.5048C17.3834 29.1219 14.2139 40.8861 14.2139 40.8861L22.4202 31.8065L36.0233 40.0678L27.5316 28.1095Z" fill="#FFD100"/>
<path d="M40.4161 34.6857L43.8459 33.4657L40.3019 33.5823L41.1613 31.0775L39.1271 33.177L37.0894 31.43L38.1417 33.9572C38.1417 33.9572 35.0966 35.2112 35.1095 35.143C35.1224 35.0747 38.2012 34.7477 38.2384 34.8753C38.2749 35.0047 37.7238 37.5315 37.7238 37.5315L39.3704 35.5221L42.3394 37.1339L40.4161 34.6857Z" fill="#FFD100"/>
<path d="M24.9455 8.10419L30.3853 6.46121L24.8509 6.37508L26.3801 2.53467L23.0497 5.65441L20.0046 2.77654L21.4544 6.79647C21.4544 6.79647 16.6119 8.52144 16.6371 8.41605C16.6623 8.31065 21.4875 8.0335 21.5357 8.23519C21.5829 8.43965 20.5327 12.3378 20.5327 12.3378L23.2519 9.32919L27.7593 12.0666L24.9455 8.10419Z" fill="#10CFC9"/>
<g clip-path="url(#clip0_2063_3424)">
<path d="M40.8687 7.79669C40.6982 7.79669 40.5586 7.65713 40.5586 7.48656V5.42731C40.5586 5.25674 40.6982 5.11719 40.8687 5.11719C41.0393 5.11719 41.1788 5.25674 41.1788 5.42731V7.48656C41.1788 7.65713 41.0393 7.79669 40.8687 7.79669Z" fill="white"/>
<path d="M38.9461 8.6495C38.8685 8.6495 38.7879 8.61849 38.729 8.55956L37.2714 7.10197C37.1504 6.98102 37.1504 6.78564 37.2714 6.66469C37.3923 6.54374 37.5877 6.54374 37.7087 6.66469L39.1663 8.12228C39.2872 8.24323 39.2872 8.43861 39.1663 8.55956C39.1073 8.61849 39.0267 8.6495 38.9492 8.6495H38.9461Z" fill="white"/>
<path d="M38.1892 10.6126H36.13C35.9594 10.6126 35.8198 10.473 35.8198 10.3024C35.8198 10.1319 35.9594 9.99231 36.13 9.99231H38.1892C38.3598 9.99231 38.4993 10.1319 38.4993 10.3024C38.4993 10.473 38.3598 10.6126 38.1892 10.6126Z" fill="white"/>
<path d="M37.5844 13.99C37.5069 13.99 37.4262 13.9589 37.3673 13.9C37.2464 13.7791 37.2464 13.5837 37.3673 13.4627L38.8249 12.0051C38.9459 11.8842 39.1413 11.8842 39.2622 12.0051C39.3831 12.1261 39.3831 12.3215 39.2622 12.4424L37.8046 13.9C37.7457 13.9589 37.665 13.99 37.5875 13.99H37.5844Z" fill="white"/>
<path d="M41.0054 15.3514C40.8349 15.3514 40.6953 15.2118 40.6953 15.0412V12.982C40.6953 12.8114 40.8349 12.6719 41.0054 12.6719C41.176 12.6719 41.3156 12.8114 41.3156 12.982V15.0412C41.3156 15.2118 41.176 15.3514 41.0054 15.3514Z" fill="white"/>
<path d="M44.3855 13.8938C44.308 13.8938 44.2274 13.8628 44.1684 13.8038L42.7108 12.3462C42.5899 12.2253 42.5899 12.0299 42.7108 11.9089C42.8318 11.788 43.0272 11.788 43.1481 11.9089L44.6057 13.3665C44.7267 13.4875 44.7267 13.6829 44.6057 13.8038C44.5468 13.8628 44.4661 13.8938 44.3886 13.8938H44.3855Z" fill="white"/>
<path d="M45.7439 10.473H43.6846C43.5141 10.473 43.3745 10.3335 43.3745 10.1629C43.3745 9.99234 43.5141 9.85278 43.6846 9.85278H45.7439C45.9145 9.85278 46.054 9.99234 46.054 10.1629C46.054 10.3335 45.9145 10.473 45.7439 10.473Z" fill="white"/>
<path d="M42.832 8.55013C42.7544 8.55013 42.6738 8.51912 42.6149 8.4602C42.4939 8.33925 42.4939 8.14387 42.6149 8.02292L44.0725 6.56532C44.1934 6.44437 44.3888 6.44437 44.5098 6.56532C44.6307 6.68627 44.6307 6.88165 44.5098 7.0026L43.0522 8.4602C42.9932 8.51912 42.9126 8.55013 42.8351 8.55013H42.832Z" fill="white"/>
</g>
<path d="M5.9256 18.7913L3.81027 18.3396L5.63946 19.3851L4.42409 20.3844L6.10752 19.9563L6.59394 21.4751L6.8492 19.8686C6.8492 19.8686 8.78047 20.1833 8.75271 20.2138C8.72494 20.2443 7.06544 19.4502 7.0864 19.3741C7.10824 19.2972 8.17454 18.1907 8.17454 18.1907L6.7153 18.6941L5.71558 16.9533L5.9256 18.7913Z" fill="white"/>
<defs>
<clipPath id="clip0_2063_3424">
<rect width="10.2342" height="10.2342" fill="white" transform="translate(35.8198 5.11719)"/>
</clipPath>
</defs>
</svg>
