<svg width="57" height="54" viewBox="0 0 57 54" fill="none" xmlns="http://www.w3.org/2000/svg">
<path d="M45.0159 46.6418C54.766 42.02 57.7569 22.5403 47.6274 9.76348C37.9004 -0.420214 18.3641 -1.0949 8.23461 10.1601C-1.8949 21.4151 1.88444 36.4583 11.6114 46.642" stroke="#5A4747" stroke-width="2"/>
<path d="M19.0796 15.7265C16.3184 17.6255 13.327 21.6607 14.4775 28.7817C15.628 35.9026 19.157 40.65 28.2838 40.65C34.5918 40.65 38.6384 38.2763 40.9393 32.3422C41.8948 29.8781 44.3909 26.408 40.9393 19.287C38.0287 13.2821 31.7353 12.1661 28.2838 12.1661C24.8322 12.1661 22.5312 13.3529 19.0796 15.7265Z" fill="black"/>
<path d="M47.1595 40.6498L42.7089 36.1992M50.72 30.8585L45.3792 29.9684M50.72 21.0672L45.3792 22.8474M47.1595 12.1659L42.7089 15.7264M40.9286 7.71533L38.2583 12.1659M30.2472 5.04496V10.3857M19.5657 6.82521L21.3459 12.1659M10.6645 12.1659L14.225 15.7264M7.99411 20.177L12.4447 21.0672M6.21387 29.0783H12.4447M8.88423 38.8696L14.225 36.1992" stroke="#5A4747" stroke-width="2"/>
</svg>
