<svg width="401" height="393" viewBox="0 0 401 393" fill="none" xmlns="http://www.w3.org/2000/svg">
<path d="M176.142 18.9636L161.131 83.4675C160.484 86.2483 159.147 88.8295 157.239 90.9823C155.331 93.1352 152.911 94.7933 150.193 95.8096C147.475 96.8259 144.544 97.169 141.659 96.8085C138.773 96.448 136.023 95.3951 133.652 93.7431L106.823 75.0471C102.396 71.9585 96.9963 70.5076 91.5821 70.952C86.1679 71.3963 81.0894 73.7072 77.2476 77.4745C73.4058 81.2418 71.0492 86.2219 70.596 91.5311C70.1429 96.8402 71.6225 102.135 74.7722 106.476L93.0233 131.641C94.7082 133.966 95.7821 136.662 96.1501 139.491C96.518 142.32 96.1684 145.194 95.1325 147.859C94.0965 150.523 92.406 152.896 90.211 154.767C88.016 156.638 85.3842 157.949 82.549 158.583L19.3378 172.726C13.8445 173.955 8.93962 176.977 5.42643 181.297C1.91325 185.617 -8.83066e-06 190.978 -8.58915e-06 196.503C-8.34763e-06 202.028 1.91325 207.39 5.42644 211.71C8.93962 216.029 13.8445 219.051 19.3378 220.28L82.549 234.423C85.3843 235.059 88.0161 236.37 90.211 238.241C92.406 240.112 94.0963 242.486 95.1322 245.151C96.1681 247.816 96.5176 250.69 96.1498 253.519C95.7819 256.348 94.708 259.045 93.0233 261.369L74.7722 286.535C71.6296 290.876 70.1556 296.169 70.6116 301.475C71.0675 306.78 73.424 311.756 77.2633 315.521C81.1026 319.286 86.1771 321.597 91.5875 322.044C96.998 322.491 102.395 321.045 106.823 317.964L133.652 299.268C136.023 297.616 138.773 296.563 141.659 296.202C144.544 295.842 147.475 296.185 150.193 297.201C152.911 298.218 155.331 299.876 157.239 302.029C159.147 304.181 160.484 306.763 161.131 309.543L176.142 374.043C177.397 379.429 180.48 384.237 184.885 387.681C189.29 391.125 194.757 393 200.391 393C206.025 393 211.492 391.125 215.897 387.681C220.303 384.237 223.385 379.429 224.641 374.043L239.161 311.665C239.809 308.884 241.145 306.303 243.053 304.15C244.961 301.997 247.381 300.339 250.099 299.323C252.817 298.306 255.748 297.963 258.634 298.324C261.519 298.684 264.269 299.737 266.64 301.389L290.443 317.977C294.87 321.059 300.267 322.504 305.678 322.057C311.088 321.61 316.163 319.299 320.002 315.534C323.842 311.769 326.198 306.793 326.654 301.488C327.11 296.182 325.636 290.89 322.493 286.548L304.75 262.059C303.065 259.735 301.991 257.039 301.623 254.21C301.255 251.381 301.604 248.507 302.64 245.842C303.676 243.177 305.367 240.804 307.562 238.934C309.757 237.063 312.389 235.752 315.224 235.117L381.444 220.276C386.938 219.047 391.843 216.025 395.356 211.705C398.869 207.386 400.782 202.024 400.782 196.499C400.782 190.974 398.869 185.612 395.356 181.293C391.843 176.973 386.938 173.951 381.444 172.722L315.224 157.88C312.391 157.244 309.761 155.933 307.568 154.063C305.375 152.192 303.686 149.821 302.65 147.158C301.614 144.495 301.264 141.622 301.63 138.795C301.996 135.967 303.068 133.272 304.75 130.947L322.493 106.463C325.643 102.122 327.123 96.8271 326.669 91.518C326.216 86.2088 323.86 81.2287 320.018 77.4614C316.176 73.6941 311.097 71.3833 305.683 70.9389C300.269 70.4945 294.869 71.9454 290.443 75.0341L266.64 91.6216C264.269 93.2737 261.519 94.3266 258.634 94.6871C255.748 95.0475 252.817 94.7044 250.099 93.6881C247.381 92.6718 244.961 91.0137 243.053 88.8609C241.145 86.708 239.809 84.1268 239.161 81.3461L224.641 18.9505C223.384 13.5651 220.3 8.75768 215.893 5.31503C211.487 1.87237 206.02 -0.00152887 200.386 -7.39637e-06C194.752 0.00151408 189.285 1.8784 184.881 5.32343C180.477 8.76847 177.395 13.5776 176.142 18.9636Z" fill="url(#paint0_linear_2001_195)"/>
<defs>
<linearGradient id="paint0_linear_2001_195" x1="0.143349" y1="196.049" x2="400.782" y2="196.049" gradientUnits="userSpaceOnUse">
<stop stop-color="#FFB2B5"/>
<stop offset="1" stop-color="#DF85D8"/>
</linearGradient>
</defs>
</svg>
