<svg width="154" height="150" viewBox="0 0 154 150" fill="none" xmlns="http://www.w3.org/2000/svg">
<g filter="url(#filter0_f_173_94386)">
<path d="M85.5229 27.9801C84.0659 25.0377 78.2381 21.3594 73.1388 22.0952C68.0395 22.8311 64.3971 25.7733 62.2117 31.6582C60.0262 37.5431 59.2978 39.75 57.8408 45.6349C56.3839 51.5198 52.592 53.5314 49.8276 54.4619C47.6421 55.1975 39.6738 55.6775 35.258 56.6687C28.5118 58.183 23.3784 61.8176 22.1455 69.9098C20.4644 80.944 33.8011 86.8289 38.9005 89.7718C42.9006 92.0803 44.7283 94.9211 44.7283 98.5992C44.7283 102.277 43.9999 109.633 44.7283 119.196C45.4568 128.759 54.1984 128.759 57.8408 127.288C61.2227 125.922 68.0393 120.667 73.1388 116.99C77.3306 113.966 80.4234 111.84 84.0658 114.047C87.7081 116.254 92.0791 120.668 97.1785 123.61C102.278 126.553 107.377 126.552 111.748 122.874C116.119 119.196 117.575 114.047 116.119 107.426C115.013 102.399 114.662 99.3344 112.476 94.1851C110.291 89.0358 112.476 86.0937 114.662 84.6225C116.847 83.1512 123.403 80.2084 129.231 72.8522C135.059 65.4961 130.763 55.375 124.86 52.9906C121.218 51.5194 113.933 50.7838 106.648 51.5194C99.3637 52.255 95.7215 48.5774 94.2646 45.6349L85.5229 27.9801Z" fill="#FFF0AE"/>
</g>
<path d="M83.0435 42.1748C82.0104 40.1207 77.8779 37.5528 74.2621 38.0665C70.6462 38.5802 68.0634 40.6342 66.5137 44.7425C64.9641 48.8509 64.4475 50.3915 63.4144 54.4998C62.3813 58.6082 59.6925 60.0125 57.7323 60.6621C56.1826 61.1756 50.5323 61.5107 47.4011 62.2027C42.6174 63.2598 38.9774 65.7972 38.1032 71.4464C36.9111 79.1496 46.368 83.2579 49.984 85.3124C52.8204 86.924 54.1165 88.9072 54.1165 91.4749C54.1165 94.0426 53.5999 99.178 54.1165 105.854C54.633 112.53 60.8316 112.53 63.4144 111.503C65.8124 110.549 70.6461 106.881 74.2621 104.313C77.2344 102.203 79.4275 100.718 82.0103 102.259C84.593 103.8 87.6925 106.881 91.3084 108.935C94.9242 110.989 98.54 110.989 101.639 108.421C104.739 105.854 105.772 102.259 104.739 97.6371C103.954 94.1279 103.706 91.9881 102.156 88.3933C100.606 84.7985 102.156 82.7447 103.706 81.7176C105.255 80.6905 109.904 78.636 114.037 73.5006C118.169 68.3652 115.123 61.2996 110.937 59.635C108.355 58.6079 103.189 58.0943 98.0235 58.6079C92.8579 59.1214 90.2752 56.554 89.2421 54.4998L83.0435 42.1748Z" fill="url(#paint0_radial_173_94386)" stroke="#FFED99"/>
<defs>
<filter id="filter0_f_173_94386" x="0.70002" y="0.70002" width="152.6" height="148.6" filterUnits="userSpaceOnUse" color-interpolation-filters="sRGB">
<feFlood flood-opacity="0" result="BackgroundImageFix"/>
<feBlend mode="normal" in="SourceGraphic" in2="BackgroundImageFix" result="shape"/>
<feGaussianBlur stdDeviation="10.65" result="effect1_foregroundBlur_173_94386"/>
</filter>
<radialGradient id="paint0_radial_173_94386" cx="0" cy="0" r="1" gradientTransform="matrix(-19.5 24.6667 -26 -18.5 77 75)" gradientUnits="userSpaceOnUse">
<stop stop-color="#FFE369"/>
<stop offset="1" stop-color="#FFFCC9"/>
</radialGradient>
</defs>
</svg>
