<svg width="16" height="16" viewBox="0 0 16 16" fill="none" xmlns="http://www.w3.org/2000/svg">
<path fill-rule="evenodd" clip-rule="evenodd" d="M2.60001 14.9481C3.00015 15.2399 3.52307 15.2869 3.97022 15.0558L8.45841 12.6453L13.5315 13.5588C14.0279 13.6421 14.5114 13.4375 14.8032 13.0374C15.095 12.6373 15.142 12.1144 14.9109 11.6672L12.464 7.15249L13.4139 2.10593C13.4973 1.60954 13.2927 1.12601 12.8925 0.834213C12.4924 0.542415 11.9695 0.4954 11.5223 0.726525L7.0076 3.17342L1.96105 2.22356C1.46465 2.14016 0.981126 2.34476 0.689328 2.7449C0.39753 3.14503 0.350515 3.66796 0.58164 4.11511L3.00201 8.6662L2.07867 13.6764C1.99528 14.1728 2.19988 14.6563 2.60001 14.9481Z" fill="#10CFC9"/>
</svg>
