<svg width="9" height="8" viewBox="0 0 9 8" fill="none" xmlns="http://www.w3.org/2000/svg">
<path fill-rule="evenodd" clip-rule="evenodd" d="M1.04112 0.808098C0.857649 1.01916 0.80598 1.31111 0.914457 1.57383L2.05427 4.21529L1.29568 7.02553C1.22482 7.3008 1.31662 7.58272 1.52768 7.76619C1.73874 7.94966 2.03068 8.00133 2.29341 7.89285L4.95155 6.73385L7.74511 7.51163C8.02038 7.58249 8.30229 7.49069 8.48577 7.27963C8.66924 7.06857 8.72091 6.77662 8.61243 6.51389L7.45343 3.85576L8.23121 1.0622C8.30207 0.786928 8.21027 0.505012 7.99921 0.321541C7.78815 0.13807 7.4962 0.0864013 7.23347 0.194878L4.55615 1.3372L1.78178 0.576097C1.50651 0.505241 1.22459 0.597038 1.04112 0.808098Z" fill="#7DC2F3"/>
</svg>
