<svg width="6" height="5" viewBox="0 0 6 5" fill="none" xmlns="http://www.w3.org/2000/svg">
<path fill-rule="evenodd" clip-rule="evenodd" d="M3.47989 0.104159C3.35286 0.0890596 3.22915 0.144619 3.15769 0.253232L2.45183 1.36383L1.19379 1.79983C1.07145 1.84384 0.988434 1.95108 0.973334 2.07811C0.958234 2.20513 1.01379 2.32885 1.12241 2.40031L2.24456 3.10754L2.66901 4.36421C2.71302 4.48655 2.82026 4.56956 2.94728 4.58466C3.07431 4.59976 3.19802 4.5442 3.26949 4.43559L3.97671 3.31344L5.23338 2.88899C5.35572 2.84498 5.43874 2.73774 5.45384 2.61071C5.46894 2.48369 5.41338 2.35998 5.30476 2.28851L4.18399 1.56974L3.75816 0.324612C3.71415 0.202272 3.60691 0.119259 3.47989 0.104159Z" fill="#FFD100"/>
</svg>
