<svg width="16" height="14" viewBox="0 0 16 14" fill="none" xmlns="http://www.w3.org/2000/svg">
<path d="M7.29384 6.70475C7.41771 6.24247 7.89278 5.9681 8.35493 6.09193C8.81708 6.21577 9.09132 6.69091 8.96745 7.15319C8.84358 7.61548 8.36852 7.88985 7.90636 7.76601C7.44421 7.64218 7.16998 7.16704 7.29384 6.70475Z" fill="#FFBF18"/>
<path d="M13.9904 8.49694C13.8665 8.9592 13.3915 9.23362 12.9293 9.10976L11.2557 8.66132C10.7936 8.5375 10.5193 8.06232 10.6432 7.60006C10.7671 7.13781 11.2422 6.86342 11.7043 6.98724L13.3779 7.43568C13.8402 7.55956 14.1143 8.03469 13.9904 8.49694Z" fill="#FFBF18"/>
<path d="M5.62101 6.2528C5.49715 6.71506 5.02215 6.98948 4.56003 6.86565L2.88632 6.41718C2.4242 6.29336 2.14994 5.81818 2.27381 5.35592C2.39767 4.89367 2.87277 4.61928 3.33489 4.7431L5.0086 5.19157C5.47083 5.31542 5.74487 5.79055 5.62101 6.2528Z" fill="#FFBF18"/>
<path d="M9.86407 10.0498L10.3124 11.7237C10.4362 12.1861 10.162 12.661 9.69974 12.7852C9.23753 12.9094 8.76266 12.6348 8.63882 12.1724L8.19045 10.4985C8.0666 10.0365 8.34093 9.56117 8.80303 9.43738C9.26532 9.3133 9.74032 9.58782 9.86407 10.0498Z" fill="#FFBF18"/>
<path d="M7.62304 1.67895L8.07141 3.35282C8.19515 3.81525 7.92093 4.29015 7.45871 4.41436C6.99653 4.53802 6.52143 4.26392 6.39768 3.80148L5.94931 2.12761C5.82557 1.66517 6.0998 1.19027 6.56212 1.06609C7.02419 0.942408 7.4993 1.21651 7.62304 1.67895Z" fill="#FFBF18"/>
<path d="M6.29219 9.99045L5.06707 11.2155C4.72868 11.5541 4.18006 11.5543 3.84185 11.2157C3.50353 10.8771 3.50352 10.3287 3.84191 9.99005L5.06703 8.76503C5.40541 8.42642 5.95403 8.42618 6.29224 8.76475C6.63056 9.10335 6.63047 9.65181 6.29219 9.99045Z" fill="#FFBF18"/>
<path d="M9.96716 3.8633L11.1924 2.63786C11.5307 2.29967 12.0793 2.29943 12.4176 2.63758C12.7558 2.97615 12.7557 3.52506 12.4174 3.86325L11.1922 5.08869C10.8538 5.4273 10.3053 5.42712 9.967 5.08897C9.62878 4.7504 9.62867 4.20188 9.96716 3.8633Z" fill="#FFBF18"/>
</svg>
