<svg width="30" height="31" viewBox="0 0 30 31" fill="none" xmlns="http://www.w3.org/2000/svg">
<path fill-rule="evenodd" clip-rule="evenodd" d="M29.7983 15.732C30.1512 16.6637 29.6817 17.7049 28.7502 18.0578L25.5626 19.2647L27.3029 22.1953C27.8116 23.0519 27.5296 24.1587 26.6729 24.6675C26.4867 24.778 26.2889 24.8511 26.0877 24.8892C25.3633 25.0264 24.599 24.708 24.2008 24.0376L21.6988 19.8245L17.3658 18.309L18.2199 22.8194L22.0137 25.9203C22.7854 26.5508 22.8997 27.6875 22.2689 28.4587C21.9898 28.8004 21.6109 29.0134 21.2087 29.0896C20.703 29.1853 20.1605 29.065 19.7308 28.7138L17.0917 26.5571L15.4235 29.5295C14.9365 30.3983 13.8365 30.7076 12.9679 30.22C12.0988 29.7328 11.7895 28.633 12.2773 27.7641L14.6749 23.4907L13.8208 18.9803L10.3417 21.9752L9.55346 26.8114C9.42768 27.5809 8.83217 28.1569 8.10834 28.294C7.90738 28.332 7.69629 28.3365 7.48259 28.3015C6.49917 28.1412 5.832 27.2141 5.99231 26.2309L6.54062 22.8669L3.13246 22.9089C2.13647 22.921 1.31876 22.1235 1.30659 21.1273C1.29415 20.1311 2.09135 19.3134 3.08784 19.3012L7.98779 19.2409L11.4669 16.246L7.13369 14.7305L2.55092 16.4658C2.45014 16.5039 2.34836 16.5324 2.24589 16.5518C1.40236 16.7115 0.539984 16.2484 0.225363 15.4175C-0.127563 14.4858 0.341929 13.4443 1.27344 13.0917L4.46094 11.8844L2.72071 8.95412C2.21198 8.09738 2.49396 6.99045 3.3507 6.48172C4.20693 5.97308 5.31409 6.25502 5.8231 7.11171L8.32494 11.3249L12.6581 12.8404L11.804 8.32978L8.00992 5.22889C7.23821 4.59867 7.12396 3.46206 7.75473 2.69054C8.385 1.91911 9.52189 1.80481 10.2929 2.43568L12.9323 4.59238L14.6001 1.62004C15.0873 0.75091 16.1866 0.44177 17.0558 0.929255C17.9249 1.41674 18.2342 2.51649 17.7463 3.38517L15.349 7.65854L16.2031 12.1691L19.682 9.17436L20.4704 4.33809C20.6307 3.35467 21.5576 2.68754 22.541 2.84781C23.5244 3.00808 24.1916 3.93522 24.0313 4.9187L23.483 8.28241L26.8912 8.24067C27.8871 8.22827 28.7049 9.02597 28.7171 10.0222C28.728 10.9105 28.0947 11.657 27.2511 11.8167C27.1487 11.8361 27.0435 11.8469 26.9358 11.8483L22.0359 11.9086L18.5568 14.9035L22.89 16.419L27.4727 14.6836C28.4047 14.3306 29.4456 14.8002 29.7983 15.732Z" fill="#A2E62E"/>
</svg>
