<svg width="118" height="114" viewBox="0 0 118 114" fill="none" xmlns="http://www.w3.org/2000/svg">
<path d="M26.0175 81.8443L43.7575 72.7038C44.2628 72.5194 44.8057 72.4625 45.3383 72.5381C45.8708 72.6138 46.3765 72.8196 46.8105 73.1375C47.2444 73.4553 47.5933 73.8753 47.8261 74.3601C48.0589 74.845 48.1685 75.3799 48.1451 75.9173L46.8748 82.9736C46.8306 83.9774 47.1434 84.9643 47.7577 85.7594C48.372 86.5544 49.2481 87.1061 50.2305 87.3166C51.213 87.5271 52.2382 87.3827 53.1243 86.9091C54.0104 86.4355 54.7001 85.6633 55.071 84.7295L57.2216 79.3177C57.4203 78.8179 58.745 77.3995 59.1559 77.0525C59.5669 76.7056 60.057 76.4654 60.583 76.3532C61.109 76.241 61.6545 76.2603 62.1712 76.4095C62.6879 76.5586 63.1599 76.8329 63.5452 77.2081L75.0616 88.5901C75.8081 89.317 76.7793 89.7689 77.8162 89.8717C78.853 89.9746 79.8941 89.7223 80.7689 89.1563C81.6437 88.5902 82.3003 87.7438 82.6313 86.7558C82.9622 85.7678 82.9479 84.6967 82.5906 83.7179L75.5527 69.4378C75.3684 68.9325 75.3116 68.3896 75.3873 67.8571C75.4631 67.3246 75.669 66.819 75.9868 66.3851C76.3047 65.9513 76.7247 65.6025 77.2095 65.3698C77.6944 65.137 78.2292 65.0275 78.7666 65.0508L83.5939 65.291C84.5971 65.334 85.5831 65.0206 86.3773 64.4062C87.1715 63.7919 87.7226 62.9162 87.9329 61.9344C88.1433 60.9526 87.9993 59.928 87.5265 59.0422C87.0537 58.1564 86.2826 57.4665 85.3498 57.0949L80.6849 54.8601C80.1851 54.6613 79.7421 54.3422 79.3952 53.9312C79.0482 53.5201 78.808 53.0298 78.6959 52.5038C78.5837 51.9777 78.6031 51.4321 78.7523 50.9153C78.9014 50.3985 79.1758 49.9265 79.551 49.5411L93.85 36.4524C94.5765 35.7057 95.0281 34.7345 95.1307 33.6977C95.2334 32.6609 94.9811 31.62 94.415 30.7453C93.849 29.8706 93.0028 29.214 92.015 28.8829C91.0272 28.5518 89.9562 28.5658 88.9773 28.9227L72.0473 37.2092C71.542 37.3936 70.9991 37.4505 70.4665 37.3748C69.934 37.2992 69.4283 37.0933 68.9944 36.7755C68.5604 36.4577 68.2116 36.0377 67.9787 35.5528C67.7459 35.0679 67.6363 34.5331 67.6597 33.9957L67.8945 28.6008C67.9376 27.5977 67.6242 26.6116 67.0098 25.8174C66.3955 25.0232 65.5198 24.4722 64.538 24.2618C63.5562 24.0515 62.5316 24.1955 61.6458 24.6683C60.76 25.141 60.0701 25.9121 59.6984 26.8449L57.6039 32.1086C57.4052 32.6084 57.0862 33.0514 56.6753 33.3983C56.2644 33.7453 55.7742 33.9855 55.2482 34.0976C54.7223 34.2098 54.1767 34.1905 53.66 34.0414C53.1433 33.8922 52.6714 33.6179 52.286 33.2428L43.3137 24.4523C42.5672 23.7254 41.596 23.2735 40.5591 23.1706C39.5222 23.0678 38.4811 23.3201 37.6064 23.8861C36.7316 24.4522 36.0749 25.2986 35.744 26.2866C35.413 27.2746 35.4274 28.3457 35.7847 29.3245L40.0574 41.1561C40.2414 41.6612 40.298 42.2038 40.2222 42.7359C40.1464 43.2681 39.9406 43.7733 39.6231 44.2069C39.3055 44.6406 38.8859 44.9892 38.4014 45.2221C37.917 45.4549 37.3826 45.5647 36.8456 45.5418L30.1959 45.2804C29.1921 45.2362 28.2051 45.5489 27.4101 46.1632C26.615 46.7776 26.0633 47.6537 25.8528 48.6361C25.6424 49.6185 25.7867 50.6438 26.2603 51.5299C26.7339 52.416 27.5061 53.1057 28.4399 53.4765L34.4481 55.4876C34.9479 55.6864 35.3909 56.0055 35.7379 56.4165C36.0848 56.8276 36.325 57.3179 36.4372 57.8439C36.5493 58.37 36.5299 58.9156 36.3808 59.4324C36.2316 59.9492 35.9573 60.4212 35.582 60.8066L21.1428 74.316C20.4165 75.0629 19.9652 76.0342 19.8628 77.071C19.7604 78.1079 20.0131 79.1487 20.5793 80.0232C21.1456 80.8978 21.992 81.5542 22.9799 81.885C23.9678 82.2158 25.0388 82.2015 26.0175 81.8443Z" fill="white"/>
<path d="M95.3688 75.3879C94.5725 75.2179 93.8444 74.8155 93.2768 74.2316C92.7092 73.6477 92.3276 72.9085 92.1802 72.1076C92.0328 71.3068 92.1263 70.4802 92.4488 69.7324C92.7713 68.9847 93.3084 68.3495 93.992 67.9071C94.6757 67.4646 95.4752 67.235 96.2894 67.2471C97.1037 67.2592 97.896 67.5126 98.5662 67.9751C99.2364 68.4377 99.7543 69.0886 100.054 69.8456C100.355 70.6026 100.423 71.4316 100.252 72.2278C100.023 73.294 99.38 74.2257 98.4644 74.8182C97.5487 75.4107 96.4354 75.6156 95.3688 75.3879Z" fill="white"/>
<path d="M19.6193 46.3646C18.8228 46.1947 18.0947 45.7923 17.527 45.2084C16.9593 44.6246 16.5776 43.8854 16.4301 43.0845C16.2826 42.2836 16.3761 41.4569 16.6986 40.7091C17.0211 39.9614 17.5582 39.326 18.2419 38.8836C18.9256 38.4412 19.7252 38.2115 20.5395 38.2236C21.3537 38.2358 22.1461 38.4892 22.8163 38.9518C23.4865 39.4145 24.0044 40.0655 24.3045 40.8226C24.6045 41.5797 24.6733 42.4087 24.502 43.2049C24.2727 44.2709 23.6297 45.2024 22.7142 45.7948C21.7988 46.3872 20.6857 46.5921 19.6193 46.3646Z" fill="white"/>
<path d="M54.6869 15.6034C54.7963 15.0906 55.0553 14.6218 55.4313 14.2563C55.8072 13.8908 56.2831 13.6451 56.7987 13.5501C57.3144 13.4552 57.8466 13.5153 58.328 13.723C58.8095 13.9306 59.2185 14.2764 59.5034 14.7166C59.7882 15.1568 59.9361 15.6716 59.9283 16.1958C59.9205 16.7201 59.7573 17.2303 59.4594 17.6617C59.1616 18.0932 58.7424 18.4267 58.255 18.6199C57.7676 18.8131 57.2338 18.8573 56.7212 18.747C56.0349 18.5994 55.4352 18.1854 55.0538 17.596C54.6724 17.0066 54.5404 16.29 54.6869 15.6034Z" fill="white"/>
</svg>
