<svg width="125" height="124" viewBox="0 0 125 124" fill="none" xmlns="http://www.w3.org/2000/svg">
<circle cx="62.3823" cy="61.7751" r="50.439" transform="rotate(-15 62.3823 61.7751)" fill="#FFD100"/>
<path fill-rule="evenodd" clip-rule="evenodd" d="M69.7724 89.7121C72.0116 89.1235 74.159 88.2222 76.1575 87.1606C80.946 84.5508 84.9022 80.7243 87.6581 75.8741C91.569 69.0548 92.6352 61.0485 90.5409 53.4424C88.4982 45.8381 83.5737 39.4695 76.7029 35.5567C69.8836 31.6458 61.8773 30.5795 54.2712 32.6738C46.6651 34.7681 40.2983 39.6411 36.3855 46.5119C32.4746 53.3312 31.4598 61.3394 33.5026 68.9436C35.5454 76.5478 40.4698 82.9165 47.3406 86.8293C54.1599 90.7402 62.1663 91.8064 69.7724 89.7121ZM40.3256 48.7704C42.6394 44.7291 46.0083 41.4485 50.0073 39.2739C51.6912 38.3556 53.5239 37.5975 55.3988 37.0987C61.8586 35.3235 68.583 36.1882 74.3415 39.493C80.0999 42.7978 84.2875 48.1597 86.0131 54.5662C87.7883 61.026 86.9235 67.7504 83.6187 73.5088C80.3139 79.2673 74.952 83.4549 68.5455 85.1805C62.0857 86.9557 55.3613 86.091 49.6029 82.7862C43.8444 79.4814 39.6568 74.1195 37.9312 67.713C36.156 61.2532 37.0208 54.5288 40.3256 48.7704ZM58.787 74.7567C59.0551 74.27 59.7937 73.4096 60.9679 72.5317C62.109 71.6786 63.4798 70.9467 64.8598 70.577C66.2352 70.2084 67.731 70.17 69.0675 70.3485C70.4475 70.5328 71.4303 70.916 71.851 71.192C72.9077 71.8853 74.3265 71.5907 75.0197 70.5339C75.713 69.4771 75.4184 68.0584 74.3616 67.3651C73.1685 66.5824 71.4502 66.0491 69.6734 65.8118C67.853 65.5687 65.7363 65.6037 63.6752 66.1559C61.6186 66.707 59.7287 67.7435 58.2274 68.8659C56.7592 69.9635 55.4736 71.2857 54.778 72.5483C54.1682 73.6553 54.5712 75.0471 55.6783 75.657C56.7853 76.2668 58.1771 75.8637 58.787 74.7567ZM51.9345 57.0942C52.4226 55.9374 53.7534 55.3889 54.9161 55.8689C56.0843 56.3513 56.6404 57.6893 56.1581 58.8576C55.8343 59.6417 55.2432 60.3684 54.6157 60.9261C53.9687 61.5012 53.0939 62.0657 52.0582 62.3432C51.0161 62.6224 49.9822 62.5656 49.1354 62.3765C48.3163 62.1936 47.4574 61.8381 46.8029 61.2968C45.8289 60.4913 45.6924 59.0487 46.498 58.0748C47.2981 57.1074 48.7267 56.9662 49.7003 57.7538C49.7096 57.7593 49.7367 57.7752 49.7852 57.797C49.872 57.836 49.9915 57.878 50.133 57.9096C50.4328 57.9765 50.6985 57.9691 50.8736 57.9222C51.055 57.8736 51.3149 57.7364 51.575 57.5051C51.6971 57.3967 51.7943 57.2891 51.8622 57.2001C51.9077 57.1405 51.9286 57.1044 51.9338 57.0954L51.9338 57.0953L51.9345 57.0942ZM73.96 50.766C72.7974 50.286 71.4665 50.8345 70.9784 51.9913C70.9746 51.9979 70.954 52.0346 70.9062 52.0972C70.8382 52.1862 70.741 52.2938 70.619 52.4022C70.3588 52.6335 70.0989 52.7707 69.9175 52.8193C69.7424 52.8662 69.4768 52.8736 69.1769 52.8067C69.0355 52.7751 68.9159 52.7331 68.8291 52.6941C68.7806 52.6723 68.7535 52.6565 68.7442 52.6509C67.7706 51.8633 66.342 52.0045 65.5419 52.9719C64.7364 53.9458 64.8729 55.3884 65.8468 56.1939C66.5013 56.7352 67.3602 57.0907 68.1793 57.2736C69.0261 57.4627 70.0601 57.5195 71.1021 57.2403C72.1378 56.9628 73.0126 56.3983 73.6597 55.8232C74.2871 55.2655 74.8782 54.5388 75.202 53.7547C75.6843 52.5864 75.1283 51.2484 73.96 50.766Z" fill="#FF49B8"/>
</svg>
