<svg width="36" height="36" viewBox="0 0 36 36" fill="none" xmlns="http://www.w3.org/2000/svg">
<circle cx="18" cy="18" r="18" fill="white"/>
<path fill-rule="evenodd" clip-rule="evenodd" d="M26.8418 5.53564C25.5155 8.93747 22.4961 9.6453 18.1221 9.6453C17.6527 9.6453 17.1877 9.63792 16.739 9.63127C16.305 9.62537 15.8946 9.61873 15.4923 9.61873C15.1351 9.61873 14.7749 9.62316 14.4199 9.63866C15.0325 8.13444 16.0105 7.11219 17.4025 6.4922C19.3429 5.62864 21.8657 5.61978 24.0918 5.61314C25.0616 5.60945 25.9901 5.60576 26.8418 5.53564Z" fill="#008F32"/>
<path fill-rule="evenodd" clip-rule="evenodd" d="M28.2083 6.62655C26.2464 10.9001 21.8741 11.3281 18.1261 11.3281C17.3031 11.3281 16.5148 11.3082 15.7849 11.3038L14.8408 14.9957C19.6753 11.0543 26.0686 14.9617 25.3851 20.9092C24.9245 24.9148 22.0689 27.5343 19.0479 28.2871C15.7568 29.1079 12.1107 27.8797 10.4758 24.5258C10.3023 24.1716 10.0005 23.4615 9.88534 23.0821L13.3558 22.1905C13.4171 22.3906 13.5212 22.584 13.6304 22.7603C15.9539 26.5076 20.6621 24.6336 21.1935 20.7461C21.7345 16.7914 16.1857 14.685 13.6569 19.3068L10.5791 17.9953L10.526 17.9716L12.0103 12.0131C12.1018 11.5894 12.4103 10.4063 12.4635 10.2122C14.1411 4.04325 19.5682 3.94582 23.9215 3.92958C22.1213 3.18043 20.1477 2.76562 18.0759 2.76562C9.6617 2.76562 2.8418 9.58553 2.8418 17.9997C2.8418 26.4139 9.6617 33.2338 18.0759 33.2338C26.4901 33.2338 33.3099 26.4139 33.3099 17.9997C33.3099 13.4767 31.3377 9.41651 28.2083 6.62655Z" fill="#EB2316"/>
</svg>
