<svg width="401" height="400" viewBox="0 0 401 400" fill="none" xmlns="http://www.w3.org/2000/svg">
<path d="M244.59 343.922L256.61 365.892L263.501 355.169L251.499 333.17L244.59 343.922Z" fill="white"/>
<path d="M243.701 362.161L250.592 351.438L234.149 323.767L243.701 362.161Z" fill="white"/>
<path d="M153.173 322.262L141.449 317.319L153.687 318.36L150.988 309.306L157.792 317.128L165.026 311.28L161.114 320.075C161.114 320.075 171.504 325.071 171.467 324.826C171.429 324.581 160.822 322.874 160.68 323.321C160.54 323.774 162.17 332.852 162.17 332.852L156.697 325.419L146.259 330.621L153.173 322.262Z" fill="#5D279E"/>
<path d="M329.848 160.431L338.152 161.676L330.097 162.987L333.187 168.292L327.631 164.429L323.832 169.302L325.048 163.096C325.048 163.096 317.597 161.603 317.657 161.752C317.717 161.901 324.819 161.275 324.844 160.968C324.867 160.658 322.463 155.166 322.463 155.166L327.103 158.997L333.067 154.017L329.848 160.431Z" fill="white"/>
<path d="M147.606 77.4461C147.889 77.4461 148.121 77.2145 148.121 76.9315V73.5142C148.121 73.2311 147.889 72.9995 147.606 72.9995C147.323 72.9995 147.092 73.2311 147.092 73.5142V76.9315C147.092 77.2145 147.323 77.4461 147.606 77.4461Z" fill="white"/>
<path d="M150.797 78.8613C150.926 78.8613 151.059 78.8099 151.157 78.7121L153.576 76.2932C153.777 76.0925 153.777 75.7682 153.576 75.5675C153.375 75.3668 153.051 75.3668 152.85 75.5675L150.431 77.9864C150.231 78.1871 150.231 78.5114 150.431 78.7121C150.529 78.8099 150.663 78.8613 150.792 78.8613H150.797Z" fill="white"/>
<path d="M152.053 82.1192H155.471C155.754 82.1192 155.985 81.8876 155.985 81.6045C155.985 81.3214 155.754 81.0898 155.471 81.0898H152.053C151.77 81.0898 151.539 81.3214 151.539 81.6045C151.539 81.8876 151.77 82.1192 152.053 82.1192Z" fill="white"/>
<path d="M153.058 87.7241C153.186 87.7241 153.32 87.6727 153.418 87.5749C153.619 87.3742 153.619 87.0499 153.418 86.8492L150.999 84.4303C150.798 84.2296 150.474 84.2296 150.273 84.4303C150.073 84.631 150.073 84.9553 150.273 85.156L152.692 87.5749C152.79 87.6727 152.924 87.7241 153.052 87.7241H153.058Z" fill="white"/>
<path d="M147.381 89.9832C147.664 89.9832 147.896 89.7517 147.896 89.4686V86.0513C147.896 85.7682 147.664 85.5366 147.381 85.5366C147.098 85.5366 146.866 85.7682 146.866 86.0513V89.4686C146.866 89.7517 147.098 89.9832 147.381 89.9832Z" fill="white"/>
<path d="M141.77 87.5644C141.898 87.5644 142.032 87.513 142.13 87.4152L144.549 84.9963C144.749 84.7956 144.749 84.4714 144.549 84.2707C144.348 84.0699 144.024 84.0699 143.823 84.2707L141.404 86.6895C141.203 86.8903 141.203 87.2145 141.404 87.4152C141.502 87.513 141.636 87.5644 141.764 87.5644H141.77Z" fill="white"/>
<path d="M139.515 81.8877H142.933C143.216 81.8877 143.447 81.6561 143.447 81.3731C143.447 81.09 143.216 80.8584 142.933 80.8584H139.515C139.232 80.8584 139.001 81.09 139.001 81.3731C139.001 81.6561 139.232 81.8877 139.515 81.8877Z" fill="white"/>
<path d="M144.35 78.6968C144.478 78.6968 144.612 78.6453 144.71 78.5475C144.911 78.3468 144.911 78.0226 144.71 77.8219L142.291 75.403C142.09 75.2023 141.766 75.2023 141.565 75.403C141.365 75.6037 141.365 75.9279 141.565 76.1286L143.984 78.5475C144.082 78.6453 144.216 78.6968 144.344 78.6968H144.35Z" fill="white"/>
<path d="M85.6988 269.667C85.8143 269.34 85.9058 269.112 85.9753 268.878C86.8007 266.111 87.6211 263.341 88.4476 260.575C88.7251 259.645 88.7322 259.644 89.6339 259.918C92.5436 260.802 95.448 261.705 98.3659 262.56C99.0184 262.751 99.1321 263.015 98.9371 263.643C97.892 267.02 96.8677 270.404 95.8757 273.798C95.0275 276.698 91.2044 276.667 89.7744 275.129C88.8492 274.134 89.0758 272.779 90.3071 272.012C91.6306 271.188 93.4981 271.248 94.7819 272.157C94.9302 272.262 95.0754 272.372 95.3081 272.544C95.4144 272.3 95.5201 272.111 95.5824 271.909C96.1195 270.164 96.6313 268.411 97.1906 266.674C97.368 266.123 97.2286 265.896 96.6809 265.734C94.209 265.007 91.7434 264.258 89.286 263.482C88.711 263.3 88.4621 263.412 88.2909 264.005C87.6566 266.203 86.9765 268.388 86.3056 270.575C85.5449 273.058 82.8088 274.03 80.6083 272.605C79.1388 271.654 79.1958 269.9 80.7261 269.004C82.0484 268.229 83.9031 268.329 85.1362 269.241C85.2839 269.35 85.4292 269.463 85.697 269.668L85.6988 269.667Z" fill="#FFD100"/>
<path d="M338.759 90.4036C338.207 89.8111 337.833 89.3756 337.424 88.979C332.579 84.2789 327.725 79.5874 322.884 74.886C321.257 73.307 321.263 73.2912 322.804 71.7179C327.778 66.6416 332.788 61.5975 337.71 56.4724C338.811 55.3262 339.481 55.3761 340.573 56.4589C346.444 62.2726 352.352 68.051 358.314 73.7721C363.41 78.6633 359.215 86.5533 354.483 87.8561C351.421 88.699 348.858 86.7659 348.598 83.3854C348.319 79.7519 350.461 75.9462 353.731 74.2666C354.109 74.0729 354.495 73.8911 355.102 73.5945C354.712 73.111 354.434 72.6876 354.082 72.3398C351.045 69.3419 347.965 66.3879 344.968 63.3522C344.018 62.3895 343.397 62.4331 342.471 63.394C338.292 67.7315 334.077 72.0332 329.815 76.2885C328.817 77.284 328.781 77.9209 329.825 78.9162C333.695 82.6046 337.489 86.3745 341.298 90.1275C345.622 94.3854 344.681 101.106 339.352 104.129C335.793 106.147 332.219 104.134 332.015 99.9948C331.837 96.4168 334.046 92.6802 337.269 91.1097C337.655 90.9219 338.046 90.7424 338.759 90.4085L338.759 90.4036Z" fill="#10CFC9"/>
<path d="M59.1246 116.31L32.8237 82.4293L54.3702 78.9264L80.7306 112.798L59.1246 116.31Z" fill="#FFD100"/>
<path d="M29.8703 105.254L51.4169 101.751L83.6544 146.47L29.8703 105.254Z" fill="#FFD100"/>
<path d="M54.5731 234.228L65.4242 233.759L55.2159 230.981L59.8646 224.593L52.2213 228.795L47.9435 222.025L48.7266 230.155C48.7266 230.155 38.9428 231.058 39.0394 230.875C39.1359 230.692 48.2026 232.461 48.1966 232.858C48.1873 233.259 44.3983 239.981 44.3983 239.981L50.8571 235.696L57.9093 242.897L54.5731 234.228Z" fill="#FF49B8"/>
<circle cx="333.659" cy="258.003" r="5.95524" transform="rotate(61.4296 333.659 258.003)" stroke="white" stroke-width="2.30377"/>
<circle cx="354.624" cy="233.929" r="10.1174" transform="rotate(61.4296 354.624 233.929)" stroke="white" stroke-width="3.45565"/>
</svg>
