<svg width="270" height="222" viewBox="0 0 270 222" fill="none" xmlns="http://www.w3.org/2000/svg">
<g clip-path="url(#clip0_2148_13755)">
<path d="M207.699 137.949L225.739 131.532L207.098 132.145L211.618 118.97L200.918 130.014L190.2 120.824L195.735 134.118C195.735 134.118 179.719 140.713 179.786 140.354C179.854 139.995 196.048 138.276 196.244 138.946C196.436 139.627 193.537 152.918 193.537 152.918L202.198 142.349L217.815 150.826L207.699 137.949Z" fill="#FFD100"/>
<path d="M145.313 31.2249L172.471 23.0224L144.841 22.5923L152.475 3.41914L135.849 18.9944L120.646 4.62667L127.884 24.6962C127.884 24.6962 103.707 33.3081 103.833 32.7819C103.959 32.2557 128.049 30.872 128.29 31.879C128.525 32.8997 123.282 52.3611 123.282 52.3611L136.858 37.3408L159.361 51.0073L145.313 31.2249Z" fill="#FF49B8"/>
<g clip-path="url(#clip1_2148_13755)">
<path d="M191.691 75.5804C191.208 75.5804 190.812 75.185 190.812 74.7017V68.8666C190.812 68.3832 191.208 67.9878 191.691 67.9878C192.175 67.9878 192.57 68.3832 192.57 68.8666V74.7017C192.57 75.185 192.175 75.5804 191.691 75.5804Z" fill="white"/>
<path d="M186.244 77.9974C186.024 77.9974 185.795 77.9096 185.629 77.7426L181.498 73.6123C181.156 73.2696 181.156 72.716 181.498 72.3733C181.841 72.0305 182.395 72.0305 182.737 72.3733L186.868 76.5035C187.21 76.8462 187.21 77.3999 186.868 77.7426C186.701 77.9096 186.472 77.9974 186.252 77.9974H186.244Z" fill="white"/>
<path d="M184.098 83.5593H178.263C177.78 83.5593 177.384 83.1639 177.384 82.6805C177.384 82.1972 177.78 81.8018 178.263 81.8018H184.098C184.581 81.8018 184.977 82.1972 184.977 82.6805C184.977 83.1639 184.581 83.5593 184.098 83.5593Z" fill="white"/>
<path d="M182.384 93.1298C182.164 93.1298 181.936 93.0419 181.769 92.8749C181.426 92.5322 181.426 91.9786 181.769 91.6358L185.899 87.5056C186.242 87.1629 186.795 87.1629 187.138 87.5056C187.481 87.8483 187.481 88.4019 187.138 88.7447L183.008 92.8749C182.841 93.0419 182.612 93.1298 182.393 93.1298H182.384Z" fill="white"/>
<path d="M192.078 96.9872C191.595 96.9872 191.2 96.5917 191.2 96.1084V90.2733C191.2 89.79 191.595 89.3945 192.078 89.3945C192.562 89.3945 192.957 89.79 192.957 90.2733V96.1084C192.957 96.5917 192.562 96.9872 192.078 96.9872Z" fill="white"/>
<path d="M201.656 92.8568C201.436 92.8568 201.208 92.7689 201.041 92.602L196.91 88.4717C196.568 88.129 196.568 87.5754 196.91 87.2326C197.253 86.8899 197.807 86.8899 198.149 87.2326L202.28 91.3629C202.622 91.7056 202.622 92.2592 202.28 92.602C202.113 92.7689 201.884 92.8568 201.665 92.8568H201.656Z" fill="white"/>
<path d="M205.505 83.1648H199.67C199.187 83.1648 198.792 82.7693 198.792 82.286C198.792 81.8027 199.187 81.4072 199.67 81.4072H205.505C205.989 81.4072 206.384 81.8027 206.384 82.286C206.384 82.7693 205.989 83.1648 205.505 83.1648Z" fill="white"/>
<path d="M197.254 77.7157C197.034 77.7157 196.806 77.6278 196.639 77.4609C196.296 77.1181 196.296 76.5645 196.639 76.2218L200.769 72.0915C201.112 71.7488 201.665 71.7488 202.008 72.0915C202.351 72.4342 202.351 72.9879 202.008 73.3306L197.878 77.4609C197.711 77.6278 197.483 77.7157 197.263 77.7157H197.254Z" fill="white"/>
</g>
<path d="M71.1386 72.2898L60.0122 69.9138L69.6335 75.4132L63.2408 80.6696L72.0955 78.4176L74.654 86.4067L75.9967 77.9567C75.9967 77.9567 86.155 79.6117 86.009 79.7721C85.8629 79.9326 77.1341 75.7556 77.2444 75.3553C77.3592 74.9511 82.9679 69.1307 82.9679 69.1307L75.2924 71.7785L70.034 62.6225L71.1386 72.2898Z" fill="white"/>
</g>
<defs>
<clipPath id="clip0_2148_13755">
<rect width="270" height="222" fill="white"/>
</clipPath>
<clipPath id="clip1_2148_13755">
<rect width="28.9997" height="28.9997" fill="white" transform="translate(177.384 67.9878)"/>
</clipPath>
</defs>
</svg>
